<svg width="26" height="26" viewBox="0 0 26 26" fill="none" xmlns="http://www.w3.org/2000/svg">
<g clip-path="url(#clip0_52_1396)">
<path d="M18.087 10.1746C17.0583 10.1746 16.0861 10.3781 15.1817 10.7398L14.3904 7.29212L18.7878 2.89492C19.4435 2.2619 19.4435 1.16543 18.7878 0.498501C18.1322 -0.168426 17.047 -0.163905 16.3913 0.498501L11.9939 4.8957L1.59391 2.49928L0 4.09313L8.39913 8.47902L4.00174 12.8875L1.19826 12.4919L0 13.6901L3.59478 15.6796L5.59565 19.2855L6.78261 18.0873L6.39826 15.2613L10.7957 10.8867L11.9487 13.1023C11.0048 14.2622 10.4092 15.666 10.231 17.1508C10.0528 18.6356 10.2993 20.1404 10.942 21.4908C11.5846 22.8411 12.597 23.9815 13.8617 24.7796C15.1264 25.5778 16.5915 26.0009 18.087 26C22.4617 26 26 22.4619 26 18.0873C26 13.7127 22.4617 10.1746 18.087 10.1746ZM18.087 23.7392C14.967 23.7392 12.4348 21.2072 12.4348 18.0873C12.4348 14.9674 14.967 12.4354 18.087 12.4354C21.207 12.4354 23.7391 14.9674 23.7391 18.0873C23.7391 21.2072 21.207 23.7392 18.087 23.7392ZM18.6522 18.3699V13.5658H16.9565V19.2177L21.0374 21.6593L21.8852 20.2802L18.6522 18.3699Z" fill="#0F172A"/>
</g>
<defs>
<clipPath id="clip0_52_1396">
<rect width="26" height="26" fill="white"/>
</clipPath>
</defs>
</svg>
