<svg width="24" height="24" viewBox="0 0 24 24" fill="none" xmlns="http://www.w3.org/2000/svg">
<path d="M21.7673 2.306C21.6732 2.20282 21.5591 2.11977 21.432 2.06186C21.3049 2.00394 21.1674 1.97237 21.0278 1.96904C20.8881 1.96571 20.7493 1.9907 20.6195 2.04249C20.4898 2.09427 20.3719 2.1718 20.273 2.27038L19.4147 3.12584L20.8762 4.58366L21.72 3.74413C21.912 3.55689 22.0242 3.30264 22.033 3.03459C22.0418 2.76654 21.9466 2.50546 21.7673 2.306ZM11.8481 15.7498H8.25V12.1516L8.69062 11.7119L15.1659 5.24975H2.25V21.7498H18.75V8.83381L12.2878 15.3091L11.8481 15.7498ZM18.75 6.71038L20.287 5.17006L18.8297 3.71272L17.2898 5.24975H18.75V6.71038Z" fill="black"/>
<path d="M9.75 14.25H11.2261L18.75 6.71063V5.25H17.2898L9.75 12.7739V14.25Z" fill="black"/>
</svg>
