<svg width="26" height="26" viewBox="0 0 26 26" fill="none" xmlns="http://www.w3.org/2000/svg">
<path d="M21.7336 20.2555C22.9004 18.8516 23.712 17.1873 24.0996 15.4034C24.4872 13.6195 24.4394 11.7685 23.9604 10.007C23.4813 8.24543 22.585 6.62519 21.3473 5.28331C20.1097 3.94142 18.567 2.91737 16.8498 2.29778C15.1327 1.67819 13.2916 1.4813 11.4822 1.72374C9.67288 1.96619 7.94854 2.64086 6.45508 3.69067C4.96163 4.74047 3.74298 6.13454 2.90224 7.75493C2.06151 9.37532 1.62341 11.1744 1.625 12.9999C1.62569 15.6536 2.56086 18.2224 4.26644 20.2555L4.25019 20.2693C4.30707 20.3376 4.37207 20.3961 4.43057 20.4635C4.50369 20.5472 4.5825 20.626 4.65807 20.7073C4.88448 20.9548 5.12011 21.1904 5.36494 21.4141C5.44078 21.4813 5.51661 21.5468 5.59244 21.6108C5.85244 21.8355 6.12057 22.0473 6.39682 22.2461C6.43257 22.2705 6.46507 22.3022 6.50082 22.3274V22.3176C8.40373 23.6569 10.6739 24.3756 13.0008 24.3756C15.3278 24.3756 17.5979 23.6569 19.5008 22.3176V22.3274C19.5366 22.3022 19.5683 22.2705 19.6048 22.2461C19.8811 22.0468 20.1492 21.835 20.4092 21.6108C20.485 21.5463 20.5609 21.4808 20.6367 21.4141C20.881 21.1904 21.1166 20.9548 21.3436 20.7073C21.4191 20.626 21.4971 20.5472 21.5711 20.4635C21.6288 20.3961 21.6946 20.3376 21.7514 20.2685L21.7336 20.2555ZM13 6.49988C13.7231 6.49988 14.43 6.71432 15.0313 7.11607C15.6326 7.51782 16.1012 8.08885 16.3779 8.75694C16.6547 9.42504 16.7271 10.1602 16.586 10.8694C16.4449 11.5787 16.0967 12.2302 15.5854 12.7415C15.074 13.2528 14.4225 13.601 13.7133 13.7421C13.0041 13.8832 12.2689 13.8108 11.6008 13.5341C10.9327 13.2573 10.3617 12.7887 9.95994 12.1874C9.55819 11.5862 9.34375 10.8793 9.34375 10.1561C9.34375 9.18643 9.72897 8.25645 10.4146 7.57077C11.1003 6.88509 12.0303 6.49988 13 6.49988ZM6.50569 20.2555C6.51979 19.1887 6.95334 18.1703 7.71255 17.4206C8.47175 16.671 9.49557 16.2504 10.5625 16.2499H15.4375C16.5044 16.2504 17.5283 16.671 18.2875 17.4206C19.0467 18.1703 19.4802 19.1887 19.4943 20.2555C17.7124 21.8613 15.3987 22.7499 13 22.7499C10.6013 22.7499 8.28763 21.8613 6.50569 20.2555Z" fill="#0F172A"/>
</svg>
