<svg width="16" height="16" viewBox="0 0 16 16" fill="none" xmlns="http://www.w3.org/2000/svg">
<g clip-path="url(#clip0_96_3295)">
<path fill-rule="evenodd" clip-rule="evenodd" d="M7.29262 10.7063C7.48012 10.8935 7.73429 10.9987 7.99929 10.9987C8.26429 10.9987 8.51846 10.8935 8.70596 10.7063L12.478 6.9356C12.6655 6.748 12.7708 6.4936 12.7707 6.22836C12.7706 5.96313 12.6652 5.70878 12.4776 5.52127C12.29 5.33376 12.0356 5.22845 11.7704 5.22852C11.5051 5.22858 11.2508 5.334 11.0633 5.5216L7.99929 8.5856L4.93529 5.5216C4.74677 5.33935 4.49422 5.23844 4.23202 5.24059C3.96982 5.24274 3.71896 5.34779 3.53346 5.53312C3.34796 5.71844 3.24268 5.9692 3.24028 6.2314C3.23788 6.4936 3.33855 6.74625 3.52062 6.93493L7.29196 10.7069L7.29262 10.7063Z" fill="black"/>
</g>
<defs>
<clipPath id="clip0_96_3295">
<rect width="16" height="16" fill="white" transform="matrix(0 1 1 0 0 0)"/>
</clipPath>
</defs>
</svg>
