<svg width="24" height="24" viewBox="0 0 24 24" fill="none" xmlns="http://www.w3.org/2000/svg">
<path fill-rule="evenodd" clip-rule="evenodd" d="M2 4V20H22V4H2ZM10.8281 16V7.69727H13.125C14.1015 7.69727 14.8828 7.79102 15.4687 7.97852C16.2344 8.22461 16.8203 8.68164 17.2265 9.34961C17.6328 10.0137 17.8359 10.8477 17.8359 11.8516C17.8359 12.8828 17.6328 13.7246 17.2265 14.377C16.7187 15.2012 15.9336 15.7012 14.8711 15.877C14.3828 15.959 13.7578 16 12.9961 16H10.8281ZM12.6973 14.5352H13.0547C13.9062 14.5352 14.5371 14.3965 14.9473 14.1191C15.3066 13.8809 15.5664 13.5117 15.7265 13.0117C15.8437 12.6407 15.9023 12.2461 15.9023 11.8281C15.9023 11.3789 15.834 10.9629 15.6973 10.5801C15.5605 10.1973 15.373 9.89847 15.1348 9.68359C14.9082 9.48047 14.6504 9.34375 14.3613 9.27344C14.0723 9.19922 13.6367 9.16211 13.0547 9.16211H12.6973V14.5352ZM6.98436 7.69727V16H8.8535V7.69727H6.98436Z" fill="#0F172A"/>
</svg>
