<svg width="16" height="16" viewBox="0 0 16 16" fill="none" xmlns="http://www.w3.org/2000/svg">
<g clip-path="url(#clip0_96_2857)">
<path fill-rule="evenodd" clip-rule="evenodd" d="M5.29373 8.7064C5.10647 8.5189 5.00128 8.26473 5.00128 7.99973C5.00128 7.73473 5.10647 7.48057 5.29373 7.29307L9.0644 3.52107C9.252 3.33356 9.5064 3.22825 9.77164 3.22832C10.0369 3.22838 10.2912 3.3338 10.4787 3.5214C10.6662 3.709 10.7715 3.9634 10.7715 4.22864C10.7714 4.49387 10.666 4.74823 10.4784 4.93573L7.4144 7.99973L10.4784 11.0637C10.6606 11.2522 10.7616 11.5048 10.7594 11.767C10.7573 12.0292 10.6522 12.2801 10.4669 12.4656C10.2816 12.6511 10.0308 12.7563 9.7686 12.7587C9.5064 12.7611 9.25375 12.6605 9.06507 12.4784L5.29307 8.70707L5.29373 8.7064Z" fill="#14B8A6"/>
</g>
<defs>
<clipPath id="clip0_96_2857">
<rect width="16" height="16" fill="white" transform="matrix(-1 0 0 -1 16 16)"/>
</clipPath>
</defs>
</svg>
