<svg width="24" height="24" viewBox="0 0 24 24" fill="none" xmlns="http://www.w3.org/2000/svg">
<path d="M10.9134 13.0853C10.7223 12.8945 10.4945 12.7444 10.2438 12.6441L2.31381 9.46406C2.21912 9.42606 2.13833 9.36002 2.08226 9.27478C2.0262 9.18955 1.99755 9.0892 2.00016 8.98722C2.00278 8.88523 2.03652 8.78648 2.09688 8.70423C2.15723 8.62197 2.2413 8.56015 2.33781 8.52706L21.3378 2.02706C21.4264 1.99505 21.5223 1.98894 21.6143 2.00945C21.7062 2.02995 21.7904 2.07622 21.857 2.14283C21.9236 2.20945 21.9699 2.29366 21.9904 2.38561C22.0109 2.47756 22.0048 2.57345 21.9728 2.66206L15.4728 21.6621C15.4397 21.7586 15.3779 21.8426 15.2956 21.903C15.2134 21.9633 15.1146 21.9971 15.0126 21.9997C14.9107 22.0023 14.8103 21.9737 14.7251 21.9176C14.6398 21.8615 14.5738 21.7807 14.5358 21.6861L11.3558 13.7541C11.255 13.5036 11.1045 13.2761 10.9134 13.0853ZM10.9134 13.0853L21.8538 2.14706" stroke="black" stroke-width="2" stroke-linecap="round" stroke-linejoin="round"/>
</svg>
