<svg width="26" height="26" viewBox="0 0 26 26" fill="none" xmlns="http://www.w3.org/2000/svg">
<path d="M16.5753 18.0917L18.092 16.5751L14.0837 12.5667V7.58342H11.917V13.4334L16.5753 18.0917ZM13.0003 23.8334C11.5017 23.8334 10.0934 23.5489 8.77533 22.9797C7.45727 22.4106 6.31074 21.6389 5.33574 20.6647C4.36074 19.6904 3.58905 18.5439 3.02066 17.2251C2.45227 15.9063 2.16772 14.498 2.16699 13.0001C2.16627 11.5022 2.45083 10.0939 3.02066 8.77508C3.59049 7.4563 4.36219 6.30978 5.33574 5.3355C6.3093 4.36122 7.45583 3.58953 8.77533 3.02041C10.0948 2.4513 11.5032 2.16675 13.0003 2.16675C14.4975 2.16675 15.9058 2.4513 17.2253 3.02041C18.5448 3.58953 19.6914 4.36122 20.6649 5.3355C21.6385 6.30978 22.4105 7.4563 22.9811 8.77508C23.5516 10.0939 23.8358 11.5022 23.8337 13.0001C23.8315 14.498 23.5469 15.9063 22.98 17.2251C22.413 18.5439 21.6414 19.6904 20.6649 20.6647C19.6885 21.6389 18.5419 22.411 17.2253 22.9808C15.9087 23.5507 14.5004 23.8349 13.0003 23.8334Z" fill="#14B8A6"/>
</svg>
