<svg width="26" height="26" viewBox="0 0 26 26" fill="none" xmlns="http://www.w3.org/2000/svg">
<g clip-path="url(#clip0_52_1401)">
<path d="M5.1998 10.4003C5.19909 8.77971 5.70321 7.19909 6.64209 5.87813C7.58098 4.55716 8.90801 3.56145 10.4388 3.02934C10.3795 2.65794 10.4015 2.27811 10.5033 1.91604C10.6051 1.55397 10.7842 1.21829 11.0282 0.932152C11.2723 0.646019 11.5756 0.416245 11.9171 0.258685C12.2586 0.101126 12.6302 0.0195312 13.0063 0.0195312C13.3824 0.0195312 13.754 0.101126 14.0955 0.258685C14.437 0.416245 14.7403 0.646019 14.9844 0.932152C15.2285 1.21829 15.4076 1.55397 15.5093 1.91604C15.6111 2.27811 15.6331 2.65794 15.5738 3.02934C17.1022 3.56363 18.4264 4.56028 19.3628 5.88106C20.2992 7.20184 20.8015 8.78128 20.7998 10.4003V18.2003L24.6998 20.8003V22.1003H1.2998V20.8003L5.1998 18.2003V10.4003ZM15.5998 23.4003C15.5998 24.0899 15.3259 24.7512 14.8383 25.2388C14.3507 25.7264 13.6894 26.0003 12.9998 26.0003C12.3102 26.0003 11.6489 25.7264 11.1613 25.2388C10.6737 24.7512 10.3998 24.0899 10.3998 23.4003H15.5998Z" fill="#0F172A"/>
</g>
<defs>
<clipPath id="clip0_52_1401">
<rect width="26" height="26" fill="white"/>
</clipPath>
</defs>
</svg>
