<svg width="16" height="16" viewBox="0 0 16 16" fill="none" xmlns="http://www.w3.org/2000/svg">
<g clip-path="url(#clip0_96_2850)">
<path fill-rule="evenodd" clip-rule="evenodd" d="M10.7063 8.7064C10.8935 8.5189 10.9987 8.26473 10.9987 7.99973C10.9987 7.73473 10.8935 7.48057 10.7063 7.29307L6.9356 3.52107C6.748 3.33356 6.4936 3.22825 6.22836 3.22832C5.96313 3.22838 5.70878 3.3338 5.52127 3.5214C5.33376 3.709 5.22845 3.9634 5.22852 4.22864C5.22858 4.49387 5.334 4.74823 5.5216 4.93573L8.5856 7.99973L5.5216 11.0637C5.33935 11.2522 5.23844 11.5048 5.24059 11.767C5.24274 12.0292 5.34779 12.2801 5.53312 12.4656C5.71844 12.6511 5.9692 12.7563 6.2314 12.7587C6.4936 12.7611 6.74625 12.6605 6.93493 12.4784L10.7069 8.70707L10.7063 8.7064Z" fill="#14B8A6"/>
</g>
<defs>
<clipPath id="clip0_96_2850">
<rect width="16" height="16" fill="white" transform="matrix(1 0 0 -1 0 16)"/>
</clipPath>
</defs>
</svg>
