<svg width="26" height="26" viewBox="0 0 26 26" fill="none" xmlns="http://www.w3.org/2000/svg">
<path d="M16.5753 18.092L18.092 16.5753L14.0837 12.567V7.58366H11.917V13.4337L16.5753 18.092ZM13.0003 23.8337C11.5017 23.8337 10.0934 23.5491 8.77533 22.98C7.45727 22.4109 6.31074 21.6392 5.33574 20.6649C4.36074 19.6906 3.58905 18.5441 3.02066 17.2253C2.45227 15.9065 2.16772 14.4982 2.16699 13.0003C2.16627 11.5024 2.45083 10.0941 3.02066 8.77533C3.59049 7.45655 4.36219 6.31002 5.33574 5.33574C6.3093 4.36146 7.45583 3.58977 8.77533 3.02066C10.0948 2.45155 11.5032 2.16699 13.0003 2.16699C14.4975 2.16699 15.9058 2.45155 17.2253 3.02066C18.5448 3.58977 19.6914 4.36146 20.6649 5.33574C21.6385 6.31002 22.4105 7.45655 22.9811 8.77533C23.5516 10.0941 23.8358 11.5024 23.8337 13.0003C23.8315 14.4982 23.5469 15.9065 22.98 17.2253C22.413 18.5441 21.6414 19.6906 20.6649 20.6649C19.6885 21.6392 18.5419 22.4112 17.2253 22.9811C15.9087 23.5509 14.5004 23.8351 13.0003 23.8337Z" fill="#14B8A6"/>
</svg>
