<svg width="16" height="16" viewBox="0 0 16 16" fill="none" xmlns="http://www.w3.org/2000/svg">
<path fill-rule="evenodd" clip-rule="evenodd" d="M8.68094 10.7082C8.49401 10.8955 8.24061 11.0007 7.97641 11.0007C7.71221 11.0007 7.45882 10.8955 7.27189 10.7082L3.51132 6.93755C3.32438 6.74996 3.21939 6.49556 3.21945 6.23032C3.21952 5.96508 3.32462 5.71073 3.51165 5.52322C3.69868 5.33571 3.95231 5.23041 4.21674 5.23047C4.48118 5.23053 4.73476 5.33596 4.9217 5.52355L7.97641 8.58755L11.0311 5.52355C11.2191 5.3413 11.4709 5.24039 11.7323 5.24254C11.9937 5.2447 12.2438 5.34975 12.4287 5.53507C12.6136 5.72039 12.7186 5.97115 12.721 6.23335C12.7234 6.49555 12.623 6.7482 12.4415 6.93689L8.6816 10.7089L8.68094 10.7082Z" fill="black"/>
</svg>
