<svg width="26" height="26" viewBox="0 0 26 26" fill="none" xmlns="http://www.w3.org/2000/svg">
<g clip-path="url(#clip0_1472_16696)">
<path d="M5.1998 10.4001C5.19909 8.77946 5.70321 7.19885 6.64209 5.87788C7.58098 4.55692 8.90801 3.5612 10.4388 3.0291C10.3795 2.6577 10.4015 2.27786 10.5033 1.91579C10.6051 1.55372 10.7842 1.21804 11.0282 0.931908C11.2723 0.645774 11.5756 0.416001 11.9171 0.258441C12.2586 0.100882 12.6302 0.0192871 13.0063 0.0192871C13.3824 0.0192871 13.754 0.100882 14.0955 0.258441C14.437 0.416001 14.7403 0.645774 14.9844 0.931908C15.2285 1.21804 15.4076 1.55372 15.5093 1.91579C15.6111 2.27786 15.6331 2.6577 15.5738 3.0291C17.1022 3.56338 18.4264 4.56003 19.3628 5.88081C20.2992 7.20159 20.8015 8.78104 20.7998 10.4001V18.2001L24.6998 20.8001V22.1001H1.2998V20.8001L5.1998 18.2001V10.4001ZM15.5998 23.4001C15.5998 24.0897 15.3259 24.751 14.8383 25.2386C14.3507 25.7262 13.6894 26.0001 12.9998 26.0001C12.3102 26.0001 11.6489 25.7262 11.1613 25.2386C10.6737 24.751 10.3998 24.0897 10.3998 23.4001H15.5998Z" fill="#0F172A"/>
</g>
<defs>
<clipPath id="clip0_1472_16696">
<rect width="26" height="26" fill="white"/>
</clipPath>
</defs>
</svg>
